<?xml version="1.0" encoding="iso-8859-1"?>
<!-- Uploaded to: SVG Repo, www.svgrepo.com, Generator: SVG Repo Mixer Tools -->
<!DOCTYPE svg PUBLIC "-//W3C//DTD SVG 1.1//EN" "http://www.w3.org/Graphics/SVG/1.1/DTD/svg11.dtd">
<svg fill="#000000" version="1.1" id="Capa_1" xmlns="http://www.w3.org/2000/svg" xmlns:xlink="http://www.w3.org/1999/xlink" 
	 width="800px" height="800px" viewBox="0 0 50 50" xml:space="preserve">
<g>
	<g>
		<path d="M50,29.089V14.296c0-1.311-1.072-2.383-2.384-2.383h-13.25L32.682,4.75H17.317l-1.684,7.164H2.384
			C1.072,11.914,0,12.985,0,14.296v14.793H50z M19.198,7.133h11.604l1.119,4.78H18.079L19.198,7.133z"/>
		<path d="M40.741,31.868v4.013h-5.402v-4.013H14.661v4.013H9.259v-4.013H0v10.999c0,1.311,1.072,2.384,2.384,2.384h45.232
			c1.312,0,2.384-1.073,2.384-2.384V31.868H40.741z"/>
	</g>
</g>
</svg>