<?xml version="1.0" encoding="iso-8859-1"?>
<!-- Uploaded to: SVG Repo, www.svgrepo.com, Generator: SVG Repo Mixer Tools -->
<!DOCTYPE svg PUBLIC "-//W3C//DTD SVG 1.1//EN" "http://www.w3.org/Graphics/SVG/1.1/DTD/svg11.dtd">
<svg fill="#000000" version="1.1" id="Capa_1" xmlns="http://www.w3.org/2000/svg" xmlns:xlink="http://www.w3.org/1999/xlink" 
	 width="800px" height="800px" viewBox="0 0 50 50" xml:space="preserve">
<g>
	<g>
		<path d="M0,23.896h2.276v16.664h9.843V20.55H4.16L0,23.896z M8.838,28.758h2.017v2.021H8.838V28.758z M8.838,32.293h2.017v2.019
			H8.838V32.293z M5.306,28.758h2.018v2.021H5.306V28.758z M5.306,32.293h2.018v2.019H5.306V32.293z"/>
		<path d="M45.84,20.55h-7.959v20.01h9.844V23.896H50L45.84,20.55z M41.162,34.312h-2.018v-2.019h2.018V34.312z M41.162,30.778
			h-2.018v-2.021h2.018V30.778z M44.693,34.312h-2.018v-2.019h2.018V34.312z M44.693,30.778h-2.018v-2.021h2.018V30.778z"/>
		<path d="M36.365,14.486h-4.762v-3.124c0.584,0.512,1.168-0.653,1.752,0.601c0-0.492,0-0.985,0-1.481
			c-0.584-1.253-1.168-0.084-1.752-0.597V9.439h-0.312v1.478v3.569H16.956v-3.124c0.585,0.512,1.169-0.653,1.753,0.601
			c0-0.492,0-0.985,0-1.481c-0.584-1.253-1.168-0.084-1.753-0.597V9.439h-0.312v1.478v3.569h-3.01l-2.27,3.346h2.27v22.728h8.586
			v-6.816h5.559v6.816h8.586V17.833h2.27L36.365,14.486z M18.688,26.987h-2.024v-2.019h2.024V26.987z M18.688,23.456h-2.024v-2.021
			h2.024V23.456z M22.221,26.987h-2.018v-2.019h2.018V26.987z M22.221,23.456h-2.018v-2.021h2.018V23.456z M29.797,26.987h-2.018
			v-2.019h2.018V26.987z M29.797,23.456h-2.018v-2.021h2.018V23.456z M33.336,26.987h-2.023v-2.019h2.023V26.987z M33.336,23.456
			h-2.023v-2.021h2.023V23.456z"/>
	</g>
</g>
</svg>